Coordinates
version=1
nRows=7
nColumns=40
inDegrees=yes

Units are S.I. units (second, meters, Newtons, ...)
Angles are in degrees.

endheader
time	pelvis_tilt	pelvis_list	pelvis_rotation	pelvis_tx	pelvis_ty	pelvis_tz	hip_flexion_r	hip_adduction_r	hip_rotation_r	knee_angle_r	knee_angle_r_beta	ankle_angle_r	subtalar_angle_r	mtp_angle_r	hip_flexion_l	hip_adduction_l	hip_rotation_l	knee_angle_l	knee_angle_l_beta	ankle_angle_l	subtalar_angle_l	mtp_angle_l	lumbar_extension	lumbar_bending	lumbar_rotation	arm_flex_r	arm_add_r	arm_rot_r	elbow_flex_r	pro_sup_r	wrist_flex_r	wrist_dev_r	arm_flex_l	arm_add_l	arm_rot_l	elbow_flex_l	pro_sup_l	wrist_flex_l	wrist_dev_l
      0.14000000	     -1.46594061	     -6.77928558	     -1.27649217	      0.99692193	      0.93294016	      0.52145614	     10.81819008	      4.71590317	    -17.01719350	     16.09399978	     16.09399978	     10.59740038	      9.92854716	     -4.40524731	     26.51214053	    -17.39225910	     -5.88108750	     58.73097825	     58.73097825	     13.11509504	    -18.99081171	     12.62115160	    -12.37306888	      9.47927342	      4.42818055	     22.92169519	    -13.67283677	     -9.49923156	     36.71233496	     45.45538423	      0.00000000	      0.00000000	      0.99242864	     -7.24469009	     -5.60306686	     49.63058065	     45.45486203	      0.00000000	      0.00000000
      0.15150000	     -1.60933464	     -6.75988516	     -1.12259661	      0.99495794	      0.93269711	      0.52128230	     10.45960059	      4.57865922	    -17.53789991	     16.21490040	     16.21490040	     11.03493844	     10.72815652	     -4.96848670	     27.97661433	    -17.28506300	     -5.82786865	     56.67215461	     56.67215461	     14.05037659	    -19.01996767	     15.56596970	    -12.29055399	      9.52785793	      4.11797391	     25.85213542	    -13.48266083	     -9.04793658	     36.46022977	     45.48817397	      0.00000000	      0.00000000	      0.54186893	     -6.98496342	     -5.26771785	     45.35509303	     45.45427843	      0.00000000	      0.00000000
      0.16300000	     -1.60570527	     -6.84695902	     -1.00827812	      0.99323524	      0.93270979	      0.52135525	      9.72565629	      4.76580955	    -17.39472276	     15.86544850	     15.86544850	     11.39377722	     10.64426287	     -5.02662893	     28.90239630	    -17.35006772	     -6.01369511	     54.05721930	     54.05721930	     14.01387565	    -19.05072519	     16.04188147	    -12.46677634	      9.61181689	      3.89363049	     28.22410322	    -13.27060389	     -8.95045446	     37.85566707	     45.44809115	      0.00000000	      0.00000000	     -0.77129771	     -6.84719015	     -4.99549333	     43.75345712	     45.41456286	      0.00000000	      0.00000000
      0.17450000	     -1.64216829	     -7.01471392	     -0.85090257	      0.99156029	      0.93261885	      0.52133477	      8.99140615	      5.03713433	    -17.36461621	     15.40758260	     15.40758260	     11.62301117	     10.64002447	     -5.31279694	     29.75461245	    -17.37794654	     -6.05396507	     51.25809855	     51.25809855	     13.93143517	    -19.06730228	     16.84394374	    -12.51125744	      9.88051672	      3.96843260	     30.09682880	    -13.47166909	     -7.83053587	     39.81546172	     45.34975843	      0.00000000	      0.00000000	     -0.65684955	     -6.55860704	     -4.24738625	     38.66887525	     45.38112470	      0.00000000	      0.00000000
      0.18600000	     -1.64698849	     -7.05958293	     -0.74422840	      0.98994665	      0.93254598	      0.52122425	      8.26329467	      5.15779675	    -17.28388037	     15.03680626	     15.03680626	     11.96476109	     10.67646876	     -5.38502068	     30.32773252	    -17.22033730	     -6.21336860	     48.17206742	     48.17206742	     13.66312540	    -19.04300072	     17.34125441	    -12.66687433	      9.92227482	      3.80952351	     32.23415149	    -13.28439918	     -7.66658850	     41.30770923	     45.30201218	      0.00000000	      0.00000000	     -1.82819900	     -6.44031628	     -3.97986651	     37.20467148	     45.34143467	      0.00000000	      0.00000000
      0.19750000	     -1.72272771	     -7.22660715	     -0.60097149	      0.98839796	      0.93227458	      0.52096338	      7.56228389	      5.39646964	    -17.37296420	     14.56691418	     14.56691418	     12.17779278	     10.89660970	     -5.67629364	     30.91372396	    -17.08253911	     -6.20080659	     44.98213047	     44.98213047	     13.13154653	    -18.97410708	     17.30595862	    -12.69894559	     10.17166585	      4.05390460	     33.55371858	    -13.78568069	     -6.21964500	     44.19103420	     45.16041881	      0.00000000	      0.00000000	     -1.53795196	     -6.17029940	     -2.94714788	     32.32448602	     45.27563466	      0.00000000	      0.00000000
      0.20900000	     -1.80084511	     -7.31081977	     -0.47811231	      0.98685603	      0.93198462	      0.52060440	      6.87989945	      5.54879125	    -17.35687634	     14.12601848	     14.12601848	     12.49673969	     11.01405605	     -5.74310927	     31.37767402	    -16.76888720	     -6.11971603	     41.67566800	     41.67566800	     12.64312512	    -18.80509216	     17.55195881	    -12.76611082	     10.26233199	      3.73359982	     35.46164337	    -13.48166694	     -5.96389221	     46.02433402	     45.09985466	      0.00000000	      0.00000000	     -2.65954248	     -6.11506078	     -2.64203899	     30.85207669	     45.23293816	      0.00000000	      0.00000000
